HIERARCHY
ROOT hip
{
	OFFSET 0.000000 0.000000 0.000000 
	CHANNELS 6 Xposition Yposition Zposition Xrotation Zrotation Yrotation
	JOINT abdomen
	{
		OFFSET 0.000000 3.402643 0.000000 
		CHANNELS 3 Xrotation Zrotation Yrotation
		JOINT chest
		{
			OFFSET 0.000000 8.438565 -0.680529 
			CHANNELS 3 Xrotation Zrotation Yrotation
			JOINT neck
			{
				OFFSET 0.000000 10.207942 -0.272212 
				CHANNELS 3 Xrotation Zrotation Yrotation
				JOINT head
				{
					OFFSET 0.000000 3.130431 0.000000 
					CHANNELS 3 Xrotation Zrotation Yrotation
					End Site
					{
						OFFSET 0.000000 3.130435 0.000000 
					}
				}
			}
			JOINT lCollar
			{
				OFFSET 3.470700 6.669187 -0.816635 
				CHANNELS 3 Yrotation Zrotation Xrotation
				JOINT lShldr
				{
					OFFSET 3.198488 0.000000 0.000000 
					CHANNELS 3 Zrotation Yrotation Xrotation
					JOINT lForeArm
					{
						OFFSET 10.139888 0.000000 0.000000 
						CHANNELS 3 Yrotation Zrotation Xrotation
						JOINT lHand
						{
							OFFSET 8.370511 0.000000 0.000000 
							CHANNELS 3 Zrotation Yrotation Xrotation
							End Site
							{
								OFFSET 4.083176 0.000000 0.000000 
							}
						}
					}
				}
			}
			JOINT rCollar
			{
				OFFSET -3.470700 6.669187 -0.816635 
				CHANNELS 3 Yrotation Zrotation Xrotation
				JOINT rShldr
				{
					OFFSET -3.198488 0.000000 0.000000 
					CHANNELS 3 Zrotation Yrotation Xrotation
					JOINT rForeArm
					{
						OFFSET -10.139888 0.000000 0.000000 
						CHANNELS 3 Yrotation Zrotation Xrotation
						JOINT rHand
						{
							OFFSET -8.370511 0.000000 0.000000 
							CHANNELS 3 Zrotation Yrotation Xrotation
							End Site
							{
								OFFSET -4.083176 0.000000 0.000000 
							}
						}
					}
				}
			}
		}
	}
	JOINT lThigh
	{
		OFFSET 5.308129 -1.633274 1.361059 
		CHANNELS 3 Xrotation Zrotation Yrotation
		JOINT lShin
		{
			OFFSET -2.041588 -20.007561 0.000000 
			CHANNELS 3 Xrotation Zrotation Yrotation
			JOINT lFoot
			{
				OFFSET 0.000000 -19.190928 -1.224953 
				CHANNELS 3 Xrotation Yrotation Zrotation
				End Site
				{
					OFFSET 0.000000 -2.449906 4.627600 
				}
			}
		}
	}
	JOINT rThigh
	{
		OFFSET -5.308129 -1.633274 1.361059 
		CHANNELS 3 Xrotation Zrotation Yrotation
		JOINT rShin
		{
			OFFSET 2.041588 -20.007561 0.000000 
			CHANNELS 3 Xrotation Zrotation Yrotation
			JOINT rFoot
			{
				OFFSET 0.000000 -19.190928 -1.224953 
				CHANNELS 3 Xrotation Yrotation Zrotation
				End Site
				{
					OFFSET 0.000000 -2.449906 4.627600 
				}
			}
		}
	}
}
MOTION
Frames: 13
Frame Time: 0.011111
5.207129 53.014172 1.595004 2.646656 -11.780403 89.269638 8.538153 -2.136096 -2.682052 -19.071241 0.443568 -0.592451 -17.636652 0.186616 -0.315480 28.011120 1.194092 -0.102755 -5.081978 -0.734958 0.324318 -65.124893 -28.635967 48.708672 -60.921410 9.333795 12.806959 8.524705 12.647240 -32.552139 6.722986 6.357456 -0.697881 65.127983 22.222307 43.820480 57.031021 -8.965733 11.095543 -8.534408 -12.637552 44.837749 -8.094838 7.948043 8.256165 13.879476 -5.928592 -2.670017 -15.695531 -7.668752 -5.278380 1.502687 -25.490870 -5.182185 -0.117495 5.940331 0.662490 -4.985072 0.504410 3.222001 
5.215625 53.008106 1.585900 2.626364 -11.819453 89.265205 8.460814 -2.112062 -2.619013 -19.071209 0.394553 -0.583676 -17.646391 0.189947 -0.337083 28.059851 1.209431 -0.137372 -5.081978 -0.734958 0.324318 -65.023102 -28.606386 48.971134 -60.847240 9.330835 12.780313 8.524705 12.647240 -32.522839 6.722986 6.357456 -0.697881 65.153526 22.245148 43.649239 56.809765 -8.943651 11.013476 -8.534408 -12.637552 44.661964 -8.154569 7.949504 8.205833 13.887442 -5.934991 -2.671568 -15.605041 -7.624991 -5.267320 1.502686 -25.490868 -5.182185 -0.117496 5.940331 0.662490 -4.984280 0.506705 3.222977 
5.221999 53.018417 1.581044 2.634345 -11.799352 89.241806 8.461337 -2.113508 -2.570245 -19.051674 0.394352 -0.564015 -17.675703 0.214724 -0.355376 28.059204 1.116634 -0.193818 -5.081978 -0.734958 0.324318 -64.993439 -28.613319 49.118679 -60.708443 9.319983 12.711175 8.524705 12.647240 -32.679089 6.722986 6.357456 -0.697881 65.112709 22.328791 43.539646 56.596828 -8.911777 10.914358 -8.534408 -12.637552 44.349468 -8.114869 7.938924 8.275832 13.900456 -5.929210 -2.671833 -15.637003 -7.650517 -5.274103 1.502687 -25.490868 -5.182184 -0.117496 5.940331 0.662490 -4.983661 0.508488 3.223742 
5.226247 53.018120 1.579527 2.638092 -11.771233 89.293892 8.480100 -2.101782 -2.616980 -19.041916 0.404414 -0.573508 -17.704931 0.180693 -0.365188 27.990740 1.136797 -0.220395 -5.081978 -0.734958 0.324318 -65.001686 -28.623945 49.098789 -60.558731 9.307689 12.641631 8.524705 12.647240 -32.864635 6.722986 6.357456 -0.697881 65.071884 22.412439 43.478874 56.395908 -8.886944 10.833609 -8.534408 -12.637552 44.036964 -8.099957 7.932359 8.333885 13.960967 -5.936875 -2.677899 -15.656006 -7.758764 -5.313043 1.502687 -25.490870 -5.182185 -0.117496 5.940329 0.662490 -4.984727 0.505428 3.222426 
5.235959 53.015385 1.579831 2.611748 -11.763350 89.371841 8.469728 -2.059447 -2.628483 -19.041914 0.394851 -0.583475 -17.724390 0.137414 -0.371969 27.971170 1.162138 -0.261312 -5.081978 -0.734958 0.324318 -64.960449 -28.570801 49.247055 -60.453548 9.304730 12.602404 8.524705 12.647240 -32.835339 6.722986 6.357456 -0.697881 65.074364 22.462002 43.425808 56.173405 -8.855617 10.735041 -8.534408 -12.637552 44.134628 -8.131005 7.963824 8.382971 14.045154 -5.938512 -2.686059 -15.668005 -7.923149 -5.359719 1.502688 -25.490868 -5.182184 -0.117494 5.940331 0.662490 -4.982997 0.510391 3.224560 
5.239903 53.010231 1.580741 2.662914 -11.754204 89.411606 8.488625 -2.119493 -2.715376 -19.051720 0.453733 -0.601862 -17.656012 0.134896 -0.381111 27.765717 1.117265 -0.284722 -5.081978 -0.734958 0.324318 -65.004486 -28.525965 49.181950 -60.314606 9.292437 12.533731 8.524705 12.647240 -32.864635 6.722986 6.357456 -0.697881 65.007996 22.522810 43.483723 55.939934 -8.820904 10.635367 -8.534408 -12.637552 44.202988 -8.109734 7.903106 8.373174 14.064606 -5.916219 -2.695229 -15.718815 -7.969139 -5.389360 1.502687 -25.490868 -5.182185 -0.117496 5.940332 0.662490 -4.983721 0.508333 3.223666 
5.248704 53.009624 1.577403 2.633013 -11.716644 89.471672 8.506608 -2.076314 -2.764389 -19.022438 0.473977 -0.620744 -17.616970 0.138111 -0.371711 27.589830 1.080630 -0.281012 -5.081978 -0.734958 0.324318 -64.990433 -28.485292 49.148254 -60.229416 9.287297 12.506912 8.524705 12.647240 -32.835339 6.722986 6.357456 -0.697881 64.967148 22.606461 43.413155 55.664421 -8.779353 10.514789 -8.534408 -12.637552 44.076031 -8.072801 7.915503 8.353939 14.063883 -5.918684 -2.685765 -15.803019 -7.978432 -5.402891 1.502686 -25.490868 -5.182185 -0.117494 5.940331 0.662490 -4.985432 0.503396 3.221555 
5.264179 53.006283 1.567693 2.681506 -11.708150 89.536629 8.488046 -2.118816 -2.796842 -18.983349 0.425795 -0.631248 -17.626778 0.168926 -0.371293 27.482677 1.129069 -0.271972 -5.081978 -0.734958 0.324318 -64.934784 -28.470041 49.130856 -60.037800 9.271809 12.413424 8.524705 12.647240 -32.932999 6.722986 6.357456 -0.697881 65.013985 22.681173 43.240322 55.357639 -8.733197 10.381907 -8.534408 -12.637552 43.880714 -8.015610 7.848956 8.452488 14.076705 -5.939129 -2.688752 -15.737139 -8.129142 -5.412848 1.502686 -25.490864 -5.182185 -0.117494 5.940331 0.662490 -4.984513 0.506049 3.222693 
5.279050 53.003548 1.560106 2.759068 -11.669560 89.569725 8.498592 -2.193751 -2.821195 -18.983356 0.435558 -0.631036 -17.626728 0.103777 -0.350604 27.375944 1.230725 -0.213680 -5.081978 -0.734958 0.324318 -64.921959 -28.419662 49.126446 -59.900089 9.262890 12.353603 8.524705 12.647240 -32.991589 6.722986 6.357456 -0.697881 65.027260 22.722212 43.020699 55.050827 -8.684906 10.251442 -8.534408 -12.637552 43.646339 -7.924283 7.746854 8.452288 14.055751 -5.938530 -2.686936 -15.682569 -8.158742 -5.434269 1.502687 -25.490870 -5.182185 -0.117496 5.940331 0.662490 -4.984697 0.505521 3.222461 
5.289065 53.004768 1.555857 2.716590 -11.621993 89.616592 8.536998 -2.136827 -2.801599 -19.012650 0.435029 -0.621495 -17.607170 0.082326 -0.353972 27.268263 1.219045 -0.242992 -5.081978 -0.734958 0.324318 -64.926842 -28.380838 49.204578 -59.708168 9.246406 12.271976 8.524705 12.647240 -32.884171 6.722986 6.357456 -0.697881 65.011192 22.700533 42.869236 54.798168 -8.649095 10.150829 -8.534408 -12.637552 43.411968 -7.894992 7.785878 8.383636 14.038165 -5.929717 -2.684235 -15.652472 -8.166842 -5.446928 1.502688 -25.490868 -5.182184 -0.117497 5.940330 0.662490 -4.985336 0.503657 3.221677 
5.299079 53.000214 1.550395 2.774757 -11.622149 89.631126 8.508614 -2.198727 -2.792972 -18.963829 0.445322 -0.620908 -17.636444 0.104147 -0.381500 27.208981 1.141013 -0.316429 -5.081978 -0.734958 0.324318 -64.903290 -28.339241 49.307945 -59.516163 9.228971 12.189103 8.524705 12.647240 -32.620499 6.722986 6.357456 -0.697881 65.001755 22.699375 42.635368 54.597248 -8.615444 10.063878 -8.534408 -12.637552 43.079941 -7.859885 7.722683 8.394185 14.003477 -5.937403 -2.671691 -15.632759 -8.238708 -5.473328 1.502686 -25.490864 -5.182185 -0.117495 5.940331 0.662490 -4.981926 0.509444 3.234765 
5.312128 52.992928 1.545539 2.721833 -11.594074 89.677673 8.497531 -2.108266 -2.794477 -18.924761 0.435982 -0.620827 -17.626698 0.107169 -0.372175 27.091753 1.117768 -0.315716 -5.081978 -0.734958 0.324318 -64.918869 -28.291637 49.366184 -59.336498 9.216234 12.107121 8.524705 12.647240 -32.552139 6.722986 6.357456 -0.697881 65.005600 22.739254 42.318588 54.354309 -8.574107 9.956420 -8.534408 -12.637552 42.738144 -7.829211 7.769678 8.482160 13.975526 -5.928015 -2.669065 -15.525116 -8.348947 -5.490083 1.502686 -25.490870 -5.182185 -0.117497 5.940329 0.662490 -4.983438 0.509153 3.224014 
5.326086 52.983223 1.540988 2.604698 -11.564784 89.663536 8.467765 -1.972989 -2.690095 -18.944265 0.396499 -0.612090 -17.597338 0.089194 -0.397096 27.101242 1.105575 -0.361657 -5.081978 -0.734958 0.324318 -64.929840 -28.204275 49.409874 -59.132217 9.190016 12.006428 8.524705 12.647240 -32.610729 6.722986 6.357456 -0.697881 65.051720 22.685806 41.929699 54.143829 -8.540853 9.870072 -8.534408 -12.637552 42.288921 -7.841004 7.899276 8.560759 14.003473 -5.937413 -2.671692 -15.427607 -8.419811 -5.497123 1.502688 -25.490868 -5.182184 -0.117495 5.940330 0.662490 -4.983595 0.504651 3.232712 
